# xmcd
#
# Track frame offsets:
#	150
#	17340
#	39595
#	54349
#	70389
#	89320
#	101746
#	114998
#	129138
#	144945
#	158853
#	170301
#	185491
#	198700
#	212380
#	227725
#	242049
#	256314
#	271018
#	289275
#	306525
#
# Disc length: 4282 seconds
#
# Revision: 1
# Processed by: cddbd v1.5.2PL0 Copyright (c) Steve Scherf et al.
# Submitted via: audiograbber 1.82.02
#
DISCID=2210b815
DTITLE=Various Artist - The Balladeers Vol 5
DYEAR=2003
DGENRE=Country
TTITLE0=Anita Ree - First Winter Rains
TTITLE1=Rick  Hpokins - Dad The Bushman
TTITLE2=Reg Briskey - Old Dance Hal
TTITLE3=Gina Briskey - The Storm
TTITLE4=Charmaine Pout - Corn Beef Tom
TTITLE5=Dusty Page - Cecil Pearce
TTITLE6=Tim Abra - Little White Crosses
TTITLE7=Doug Dayman - The Inland Of Australia
TTITLE8=Merv Webster - Murder Bloody Murder
TTITLE9=Noel Riley - Lead Me Down To The Stockyards
TTITLE10=Zeta Burns - Our Wondrous Land
TTITLE11=Bev Branson - Back In The Barcoo
TTITLE12=Dave McCallum - Outback Country Style
TTITLE13=Pat Pincott - Happy Childhood Days
TTITLE14=Ernie Constance - Things I See Around Me
TTITLE15=John Kilcullen - Blue Gums Calling Me Back Home
TTITLE16=Cheryl Lethllen - Where Do Old Cowboys Go
TTITLE17=Col Edmonds - Mustering Season
TTITLE18=Steve Brodie - Old Coster
TTITLE19=Lynn Manning - Cattleman's Dream
TTITLE20=Barry K Chandler - We're From This Land
EXTD=
EXTT0=
EXTT1=
EXTT2=
EXTT3=
EXTT4=
EXTT5=
EXTT6=
EXTT7=
EXTT8=
EXTT9=
EXTT10=
EXTT11=
EXTT12=
EXTT13=
EXTT14=
EXTT15=
EXTT16=
EXTT17=
EXTT18=
EXTT19=
EXTT20=
PLAYORDER=
